<svg id="Capa_1" enable-background="new 0 0 512 512" height="512" viewBox="0 0 512 512" width="512" xmlns="http://www.w3.org/2000/svg"><g><g><path d="m374.76 204.06-18.76-19.06-199 .084-19.77 19.036c-2.8 29.48 23 51.8 38.77 61.12 5.25 3.1 9.4 4.76 11 4.76 15.23 0 17.21-15.15 29-19.07v-.01c1.75-.58 3.73-.92 6-.92 17.5 0 17.5 20 35 20s17.5-20 35-20 17.5 20 35 20c1.47 0 4.77-1.26 9-3.65 15.04-8.51 41.74-31.31 38.76-62.29z" fill="#eefaff"/><path d="m137.23 204.12c-14.215-13.82-21.204-34.801-16.79-55.61 15.57-73.4 70.31-138.51 135.56-138.51 65.2 0 119.89 64.99 135.52 138.32 4.391 20.592-2.405 41.69-16.8 55.7-3.39 3.35-7.41 5.98-13.72 5.98-17.6 0-17.6-20-35-20-17.6 0-17.6 20-35 20-17.6 0-17.6-20-35-20-17.6 0-17.6 20-35 20-17.6 0-17.6-20-35-20-17.6 0-17.6 20-35 20-6.32 0-10.37-2.58-13.77-5.88z" fill="#91def5"/><circle cx="226" cy="100" fill="#eefaff" r="30"/></g><g><circle cx="336" cy="110" r="10"/><circle cx="296" cy="70" r="10"/><circle cx="296" cy="150" r="10"/><circle cx="176" cy="150" r="10"/><path d="m146 412c-11.028 0-20-8.972-20-20 0-5.522-4.478-10-10-10s-10 4.478-10 10c0 22.056 17.944 40 40 40s40-17.944 40-40v-112.033c.426.031.759.033 1 .033 8.594 0 14.575-3.38 19-7.21v129.21c0 38.598-31.402 70-70 70-5.522 0-10 4.478-10 10s4.478 10 10 10c49.626 0 90-40.374 90-90v-141.073c1.733.95 3.394 2.709 5.975 5.658 3.172 3.626 7.452 8.503 14.025 11.267v63.148c0 5.522 4.478 10 10 10s10-4.478 10-10v-62.396c7.727-2.542 12.542-8.037 16.025-12.019 1.6-1.829 2.845-3.199 3.975-4.206v139.621c0 49.626 40.374 90 90 90 5.522 0 10-4.478 10-10s-4.478-10-10-10c-38.598 0-70-31.402-70-70v-131.054c4.423 4.365 10.616 8.719 20 9.016v112.038c0 22.056 17.944 40 40 40s40-17.944 40-40c0-5.522-4.478-10-10-10s-10 4.478-10 10c0 11.028-8.972 20-20 20s-20-8.972-20-20v-120.045c19.651-12.812 39.498-35.837 38.96-64.241.156-.177.315-.356.466-.529 14.544-16.576 20.478-39.361 15.873-60.949-15.64-73.383-71.755-146.236-145.299-146.236-73.518 0-129.737 72.868-145.342 146.435-4.587 21.619 1.386 44.421 15.993 61.014.125.141.26.292.39.437-.314 27.005 18.77 49.423 38.959 62.871v121.243c0 11.028-8.972 20-20 20zm-2.409-215.664c-12.324-12.725-16.725-29.928-13.368-45.751 15.791-74.445 69.864-130.585 125.777-130.585 55.837 0 109.894 56.062 125.739 130.406 3.622 16.977-1.933 34.723-14.05 46.501-2.368 2.342-3.993 3.093-6.689 3.093-3.954 0-5.704-1.619-10.086-6.628-4.938-5.643-11.701-13.372-24.914-13.372-13.362 0-20.449 8.099-25.138 13.458-4.326 4.943-6.046 6.542-9.862 6.542-3.954 0-5.704-1.619-10.086-6.628-4.938-5.643-11.701-13.372-24.914-13.372-13.362 0-20.449 8.099-25.138 13.458-4.326 4.943-6.046 6.542-9.862 6.542-3.954 0-5.704-1.619-10.086-6.628-4.938-5.643-11.701-13.372-24.914-13.372-13.362 0-20.449 8.099-25.138 13.458-4.326 4.943-6.046 6.542-9.862 6.542-4.135 0-5.342-1.963-7.409-3.664zm5.236 23.585c.705.048 1.426.079 2.173.079 13.213 0 19.976-7.729 24.914-13.372 4.382-5.009 6.132-6.628 10.086-6.628 3.816 0 5.536 1.599 9.862 6.542 4.689 5.359 11.776 13.458 25.138 13.458 13.213 0 19.976-7.729 24.914-13.372 4.382-5.009 6.132-6.628 10.086-6.628 3.816 0 5.536 1.599 9.862 6.542 4.689 5.359 11.776 13.458 25.138 13.458 13.213 0 19.976-7.729 24.914-13.372 4.382-5.009 6.132-6.628 10.086-6.628 3.816 0 5.536 1.599 9.862 6.542 4.689 5.359 11.776 13.458 25.138 13.458.822 0 1.61-.041 2.382-.099-5.125 17.918-21.477 31.618-32.302 37.742-2.424 1.37-4.059 2.061-4.831 2.334-3.378-.207-5.16-1.919-9.224-6.563-4.673-5.341-11.737-13.414-25.025-13.414s-20.352 8.073-25.025 13.415c-4.355 4.977-6.089 6.585-9.975 6.585s-5.62-1.608-9.975-6.585c-4.673-5.342-11.737-13.415-25.025-13.415-11.626 0-18.117 5.527-25.023 13.416-4.051 4.627-5.835 6.342-9.19 6.56-.995-.353-3.302-1.339-6.698-3.344-3.08-1.82-25.68-15.785-32.262-36.711z"/><path d="m226 140c22.056 0 40-17.944 40-40s-17.944-40-40-40-40 17.944-40 40 17.944 40 40 40zm0-60c11.028 0 20 8.972 20 20s-8.972 20-20 20-20-8.972-20-20 8.972-20 20-20z"/><circle cx="256" cy="386" r="10"/><path d="m256 421c-5.522 0-10 4.478-10 10v71c0 5.522 4.478 10 10 10s10-4.478 10-10v-71c0-5.522-4.478-10-10-10z"/></g></g></svg>